<?xml version="1.0" standalone="no"?>
<!DOCTYPE svg PUBLIC "-//W3C//DTD SVG 20010904//EN"
 "http://www.w3.org/TR/2001/REC-SVG-20010904/DTD/svg10.dtd">
<svg version="1.0" xmlns="http://www.w3.org/2000/svg"
 width="16.000000pt" height="16.000000pt" viewBox="0 0 16.000000 16.000000"
 preserveAspectRatio="xMidYMid meet">
<metadata>
Created by potrace 1.11, written by Peter Selinger 2001-2013
</metadata>
<g transform="translate(0.000000,16.000000) scale(0.001600,-0.001600)"
fill="#000000" stroke="none">
<path d="M4695 9994 c-16 -2 -86 -9 -155 -15 -69 -6 -134 -13 -145 -15 -11 -1
-58 -8 -105 -14 -290 -38 -693 -140 -992 -249 -1367 -501 -2443 -1555 -2962
-2902 -127 -330 -242 -759 -280 -1044 -3 -22 -8 -58 -11 -80 -34 -255 -40
-360 -40 -700 0 -265 6 -409 20 -510 3 -16 7 -52 10 -80 11 -98 41 -283 65
-400 230 -1121 839 -2135 1720 -2862 109 -89 264 -206 330 -249 25 -16 47 -32
50 -35 3 -3 68 -46 145 -94 522 -327 1106 -558 1705 -675 329 -63 322 -63 915
-66 589 -3 603 -2 910 52 194 34 179 31 369 79 1664 427 2987 1668 3519 3300
78 239 88 276 146 555 78 372 86 463 86 1000 0 440 -2 487 -23 635 -65 458
-165 844 -320 1230 -74 184 -202 453 -279 583 -24 41 -43 75 -43 77 0 19 -253
398 -337 505 -6 8 -40 51 -74 95 -262 336 -655 709 -1014 960 -514 361 -1046
609 -1640 765 -149 39 -414 93 -510 105 -27 3 -59 8 -70 10 -25 5 -90 13 -175
21 -36 3 -78 8 -95 11 -35 5 -675 12 -720 7z"/>
</g>
</svg>
